<svg width="262" height="262" viewBox="0 0 262 262" fill="none" xmlns="http://www.w3.org/2000/svg">
<g clip-path="url(#clip0_2641_2)">
<path d="M70.5828 124.214C49.4394 124.214 32.0688 106.844 32.0688 85.7002C32.0688 64.5568 49.4394 47.1862 70.5828 47.1862C91.7262 47.1862 109.097 64.5568 109.097 85.7002C109.097 106.844 91.7262 124.214 70.5828 124.214ZM70.5828 63.797C58.5046 63.797 48.6796 73.622 48.6796 85.7002C48.6796 97.7784 58.5046 107.603 70.5828 107.603C82.661 107.603 93.2458 97.7784 93.2458 85.7002C93.2458 73.5958 82.661 63.797 70.5828 63.797Z" fill="#DBDBDB"/>
<path d="M229.171 214.08H40.3742C37.3612 214.08 34.322 212.561 33.5884 209.548C32.0688 206.535 32.8286 203.495 35.108 201.242L96.285 133.279C97.8046 131.76 99.298 131.026 101.577 131.026C103.831 131.026 105.35 131.786 106.87 133.279L123.481 149.89L155.942 110.616C157.462 109.097 159.715 107.603 161.995 107.603C164.248 107.603 166.527 109.123 168.047 110.616L236.01 201.242C237.529 203.495 238.263 206.535 236.769 208.788C235.224 211.041 232.184 214.08 229.171 214.08ZM56.985 198.963H214.054L161.209 127.987L129.48 166.501C127.961 168.021 125.708 168.754 123.428 168.754C121.175 168.754 118.896 167.994 117.376 166.501L100.765 149.89L56.985 198.963Z" fill="#DBDBDB"/>
<path opacity="0.99" d="M236.717 244.289H25.283C12.445 244.289 2.62 234.464 2.62 221.626V40.3742C2.62 27.5362 12.445 17.7112 25.283 17.7112H236.743C249.581 17.7112 259.406 27.5362 259.406 40.3742V221.626C259.38 234.464 249.555 244.289 236.717 244.289ZM25.283 32.8286C20.7504 32.8286 17.7374 35.8416 17.7374 40.3742V221.626C17.7374 226.158 20.7504 229.171 25.283 229.171H131.013H236.743C241.276 229.171 244.289 226.158 244.289 221.626V40.3742C244.289 35.8416 241.276 32.8286 236.743 32.8286H25.283Z" fill="#DBDBDB"/>
</g>
<defs>
<clipPath id="clip0_2641_2">
<rect width="262" height="262" fill="white"/>
</clipPath>
</defs>
</svg>
